<svg width="640" height="420" viewBox="0 0 640 420" fill="none" xmlns="http://www.w3.org/2000/svg">
  <defs>
    <linearGradient id="bg" x1="0" y1="0" x2="640" y2="420" gradientUnits="userSpaceOnUse">
      <stop stop-color="#1b0d09"/>
      <stop offset="1" stop-color="#2d140b"/>
    </linearGradient>
    <linearGradient id="fire" x1="140" y1="70" x2="495" y2="350" gradientUnits="userSpaceOnUse">
      <stop stop-color="#ff9f1a"/>
      <stop offset="0.56" stop-color="#ff6200"/>
      <stop offset="1" stop-color="#d62828"/>
    </linearGradient>
    <filter id="soft" x="0" y="0" width="640" height="420" filterUnits="userSpaceOnUse" color-interpolation-filters="sRGB">
      <feGaussianBlur stdDeviation="20"/>
    </filter>
  </defs>

  <rect x="0" y="0" width="640" height="420" rx="26" fill="url(#bg)"/>
  <g filter="url(#soft)" opacity="0.4">
    <circle cx="160" cy="90" r="58" fill="#ff6a00"/>
    <circle cx="505" cy="334" r="72" fill="#d62828"/>
    <circle cx="500" cy="96" r="52" fill="#ff9f1a"/>
  </g>

  <rect x="150" y="96" width="340" height="230" rx="24" fill="#120d0b" stroke="#ff7a00" stroke-opacity="0.45" stroke-width="2"/>
  <rect x="176" y="128" width="288" height="20" rx="10" fill="#2a1a14"/>
  <rect x="176" y="166" width="208" height="14" rx="7" fill="#2a1a14"/>
  <rect x="176" y="188" width="168" height="14" rx="7" fill="#2a1a14"/>
  <rect x="176" y="210" width="246" height="14" rx="7" fill="#2a1a14"/>

  <path d="M320 146C358 182 367 215 367 240C367 272 345 298 314 298C282 298 258 275 258 243C258 214 274 184 320 146Z" fill="url(#fire)"/>
  <path d="M316 179C335 199 340 217 340 233C340 251 328 266 312 266C294 266 281 252 281 234C281 216 289 198 316 179Z" fill="#ffd38a"/>

  <text x="320" y="352" fill="#fff5ef" font-family="Sora, Arial, sans-serif" font-size="24" font-weight="700" text-anchor="middle">
    Nessuna scheda ancora creata
  </text>
  <text x="320" y="380" fill="#ffbd8a" font-family="Sora, Arial, sans-serif" font-size="15" text-anchor="middle">
    Seleziona un cliente per iniziare
  </text>
</svg>
